<svg width="67" height="65" viewBox="0 0 67 65" fill="none" xmlns="http://www.w3.org/2000/svg">
<path d="M52.5449 16.5578H14.5219C14.0568 16.5578 13.6798 16.1817 13.6798 15.7176C13.6798 15.2536 14.0568 14.8775 14.5219 14.8775H52.5449C53.01 14.8775 53.387 15.2536 53.387 15.7176C53.387 16.1817 53.01 16.5578 52.5449 16.5578Z" fill="#FFB354"/>
<path d="M33.5001 21.1356C30.5057 21.1356 28.0694 18.705 28.0694 15.7172C28.0694 12.7295 30.5055 10.2989 33.5001 10.2989C36.4945 10.2989 38.9307 12.7295 38.9307 15.7172C38.9307 18.705 36.4946 21.1356 33.5001 21.1356ZM33.5001 11.789C31.329 11.789 29.5625 13.5513 29.5625 15.7176C29.5625 17.884 31.3288 19.6463 33.5001 19.6463C35.6712 19.6463 37.4376 17.884 37.4376 15.7176C37.4376 13.5513 35.6713 11.789 33.5001 11.789Z" fill="#FFB354"/>
<path d="M31.2605 24.4963V53.0827H35.9588V24.4963H31.2605ZM33.9978 40.3507C33.9978 40.625 33.775 40.8473 33.5001 40.8473C33.2253 40.8473 33.0025 40.625 33.0025 40.3507V25.2187C33.0025 24.9444 33.2253 24.7221 33.5001 24.7221C33.775 24.7221 33.9978 24.9444 33.9978 25.2187V40.3507Z" fill="#FFB354"/>
<path d="M37.2162 56.2097H29.7491C29.1169 56.2097 28.6044 55.6984 28.6044 55.0676C28.6044 54.4369 29.1169 53.9255 29.7491 53.9255H37.2162C37.8484 53.9255 38.3609 54.4369 38.3609 55.0676C38.3609 55.6984 37.8484 56.2097 37.2162 56.2097Z" fill="#FFB354"/>
<path d="M41.7294 59.2496H25.2374C24.6052 59.2496 24.0927 58.7382 24.0927 58.1075C24.0927 57.4768 24.6052 56.9654 25.2374 56.9654H41.7294C42.3616 56.9654 42.8741 57.4768 42.8741 58.1075C42.8741 58.7382 42.3616 59.2496 41.7294 59.2496Z" fill="#FFB354"/>
<path d="M47.302 62.4129H19.6617C19.0295 62.4129 18.517 61.9015 18.517 61.2708C18.517 60.64 19.0295 60.1286 19.6617 60.1286H47.302C47.9342 60.1286 48.4468 60.64 48.4468 61.2708C48.4468 61.9015 47.9342 62.4129 47.302 62.4129Z" fill="#FFB354"/>
<path d="M14.9192 18.5724L4.72534 40.6215H6.67034L14.9192 22.9823L23.1676 40.6215H25.1126L14.9192 18.5724Z" fill="#FFB354"/>
<path d="M26.2088 43.5267H3.66214C3.11241 43.5267 2.66675 43.0821 2.66675 42.5336C2.66675 41.9851 3.11237 41.5405 3.66214 41.5405H26.2088C26.7585 41.5405 27.2042 41.9851 27.2042 42.5336C27.2042 43.0821 26.7585 43.5267 26.2088 43.5267Z" fill="#FFB354"/>
<path d="M5.05325 44.2372C6.24918 48.5408 10.2032 51.7 14.8974 51.7C19.5916 51.7 23.5457 48.5406 24.7416 44.2372H5.05287H5.05325Z" fill="#FFB354"/>
<path d="M52.0802 18.5724L62.2737 40.6215H60.3287L52.0802 22.9823L43.8318 40.6215H41.8868L52.0802 18.5724Z" fill="#FFB354"/>
<path d="M63.338 43.5267H40.7914C40.2416 43.5267 39.796 43.0821 39.796 42.5336C39.796 41.9851 40.2416 41.5405 40.7914 41.5405H63.338C63.8877 41.5405 64.3334 41.9851 64.3334 42.5336C64.3334 43.0821 63.8877 43.5267 63.338 43.5267Z" fill="#FFB354"/>
<path d="M61.9476 44.2372C60.7517 48.5408 56.7977 51.7 52.1035 51.7C47.4092 51.7 43.4551 48.5406 42.2593 44.2372H61.948H61.9476Z" fill="#FFB354"/>
<path d="M33.5001 2.5873C33.035 2.5873 32.658 2.94203 32.658 3.37965V24.4962H34.3422V3.37965C34.3422 2.94202 33.9652 2.5873 33.5001 2.5873H33.5001Z" fill="#FFB354"/>
</svg>
