<svg width="57" height="61" viewBox="0 0 57 61" fill="none" xmlns="http://www.w3.org/2000/svg">
<path d="M26.282 0.106667C20.2572 0.687653 14.9676 4.06767 12.6071 8.85927C11.5752 10.9466 11.4209 11.8838 11.4209 16.1414V19.4267L11.1484 19.5332C10.7216 19.6992 10.1165 20.3632 9.84397 20.9566C9.65443 21.3833 9.59497 21.7395 9.59497 22.6289C9.59497 23.6961 9.63028 23.8504 10.259 25.6057C11.0772 27.895 11.4092 28.559 12.0738 29.2112C13.0109 30.1601 14.114 30.4803 15.2878 30.1719C15.6198 30.0889 15.6675 30.1124 15.8099 30.4568C16.0119 30.9548 15.8929 32.8291 15.5845 34.0505C15.0747 36.0195 13.8768 37.6083 12.311 38.403L11.5163 38.8062L11.9672 38.9722C13.0586 39.3519 14.7427 39.7192 15.7982 39.7786C17.6601 39.8969 19.2612 39.4349 20.6368 38.3912L21.2655 37.9167L22.0602 38.5925C22.9379 39.3395 24.4442 40.3478 25.3572 40.7988C27.3616 41.7954 28.8085 41.9254 30.5756 41.2379C31.9395 40.7158 33.2439 39.9335 34.6437 38.8186L35.7469 37.9291L36.3638 38.4036C37.7394 39.4355 39.3406 39.8982 41.2025 39.7792C42.2579 39.7198 43.942 39.3525 45.0334 38.9728L45.4843 38.8068L44.6896 38.4036C42.6258 37.3481 41.3096 35.0589 41.1077 32.1651C41.0129 30.6705 41.0959 30.3267 41.7834 29.5797C42.5187 28.7615 42.8748 28.1328 43.278 26.9585C43.5512 26.1638 43.61 25.7965 43.61 24.7646C43.6218 23.6856 43.5865 23.4484 43.3493 23.0092C43.0408 22.4283 42.4481 22.0009 42.0324 22.0721C41.7717 22.1198 41.7599 22.0956 41.8311 21.6924C42.2579 19.0953 42.3527 15.3232 42.0207 13.5561C41.558 11.042 40.5261 9.12066 38.759 7.47184C35.4973 4.42382 30.1247 3.10699 25.0605 4.11536C20.0082 5.12373 16.2962 8.27828 15.2283 12.4412C14.6826 14.5521 14.6114 17.7308 15.0388 20.7317C15.2407 22.2263 15.2407 22.1786 15.11 22.1074C15.0623 22.0715 14.8375 21.55 14.6238 20.9448C14.1611 19.6639 14.0187 19.4032 13.6154 19.1895L13.3187 19.0352V16.2597C13.3187 12.2987 13.6625 10.9348 15.2636 8.51489C18.0862 4.29251 22.8896 1.87317 28.4994 1.87317C34.7614 1.87317 40.0275 4.90942 42.5893 9.99771C43.5382 11.8714 43.5976 12.2511 43.6447 16.3427C43.6683 18.4896 43.7395 20.0907 43.8107 20.2802C44.0956 20.9801 45.1628 20.9684 45.4595 20.2567C45.5543 20.0194 45.5902 18.7739 45.5543 15.8448L45.5072 11.7766L45.1752 10.7682C42.8154 3.59383 35.1176 -0.747475 26.282 0.106667ZM36.9918 13.4254C37.9172 14.3508 38.5812 15.3468 39.3282 16.9126L39.9209 18.1582L39.8497 19.5338C39.8144 20.2926 39.6125 21.7872 39.4112 22.8668C39.2099 23.9464 39.0197 24.9777 38.9844 25.1796C38.9485 25.405 39.0315 25.2861 39.2334 24.8358C39.6602 23.8752 40.0634 23.27 40.4195 23.0328C40.6803 22.855 40.7633 22.855 41.0241 22.9851C41.5221 23.2576 41.7834 23.8151 41.7834 24.6097C41.7834 25.9736 41.2142 27.4441 40.313 28.4289C40.0287 28.7256 39.5301 29.532 39.1863 30.2078C37.2644 34.074 34.0745 37.4547 30.7769 39.1146C28.9385 40.0276 28.0609 40.0276 26.199 39.1029C24.3606 38.1893 21.7158 35.9601 20.2212 34.0505L19.8298 33.5525L20.8381 34.0864C22.0007 34.7033 23.4117 35.2366 24.7044 35.5569C25.1906 35.6758 25.7481 35.8294 25.9258 35.9006C26.1154 35.9718 26.8388 36.0313 27.5387 36.0313C29.1281 36.0313 29.7091 35.7941 30.1358 34.9641C30.456 34.3119 30.4678 33.9087 30.1593 33.3035C29.7444 32.4853 29.3411 32.2951 27.8583 32.2598C27.1584 32.2363 26.3997 32.2481 26.1742 32.2834C25.7827 32.3664 25.0946 32.9121 24.858 33.3506C24.7391 33.576 24.7038 33.576 23.8025 33.2558C21.7152 32.5206 19.6396 31.2038 18.062 29.6386C17.4451 29.0099 17.2556 28.7491 17.1961 28.3812C17.1484 28.1322 16.7694 26.9226 16.3302 25.7011C15.8917 24.4797 15.5715 23.3883 15.6068 23.2935C15.6545 23.187 15.8205 23.0445 15.9747 22.9615C16.5204 22.7243 17.0778 23.3053 17.7653 24.8352C17.9313 25.2267 18.0503 25.4044 18.0143 25.2384C17.8124 24.2183 17.3504 21.6447 17.2909 21.1467C17.2079 20.5775 17.2314 20.5298 17.7059 19.9848C18.477 19.1071 18.5359 19.0953 21.2761 19.0241C23.9208 18.9646 25.7827 18.7392 27.5858 18.2889C31.12 17.3994 33.6818 15.6676 35.3542 13.0587C35.8292 12.3111 35.8887 12.3229 36.9918 13.4254Z" fill="#FFB354"/>
<path d="M18.4188 41.9136C18.1221 42.0084 16.1772 42.5423 14.0899 43.0998C8.12454 44.7009 5.89474 45.5073 3.878 46.8C2.60949 47.6188 2.14681 48.1286 1.58936 49.3147C0.545683 51.5563 0.165997 53.679 0.0712299 57.8896L0 60.7004H28.5H57L56.9288 57.8778C56.834 53.6201 56.4543 51.521 55.3747 49.2553C54.8173 48.0691 54.4023 47.6306 53.0266 46.7412C51.1406 45.5197 48.7807 44.6774 42.9101 43.1004C40.8228 42.5429 38.8537 42.009 38.5335 41.9025L37.9643 41.7247L38.0355 42.0332C38.2015 42.6619 38.1303 45.093 37.929 45.9824C37.5258 47.7025 34.8574 52.5764 33.1609 54.652C31.9395 56.1584 30.3266 57.6523 29.1169 58.4353L28.4882 58.8385L27.504 58.1745C25.701 56.9407 23.7679 54.818 22.155 52.268C21.2178 50.7976 19.6049 47.6541 19.2612 46.6222C18.9174 45.6139 18.775 44.1081 18.8933 42.839C18.941 42.258 18.9763 41.7718 18.9645 41.7718C18.9645 41.7594 18.7155 41.8306 18.4188 41.9136Z" fill="#FFB354"/>
<path d="M25.8787 44.2506C25.5232 44.5826 25.0958 45.0093 24.9416 45.1877L24.6691 45.5197L25.12 46.1955C25.369 46.5634 25.8317 47.1326 26.1637 47.4528L26.7564 48.0221L25.7363 50.5839L24.7161 53.1457L25.0841 53.6913C25.665 54.5213 26.4362 55.316 27.5269 56.1584L28.4994 56.9295L29.3294 56.2655C30.3253 55.4591 31.2272 54.5579 31.8323 53.7514L32.295 53.1463L31.2873 50.6309C30.7298 49.2435 30.2789 48.0809 30.2789 48.0338C30.2789 47.9861 30.5756 47.6306 30.9429 47.2509C31.299 46.8595 31.7611 46.3138 31.9513 46.0295L32.3192 45.5079L31.88 44.9858C31.6546 44.7015 31.2278 44.2741 30.9429 44.0369L30.4331 43.6219H28.4882H26.5433L25.8787 44.2506Z" fill="#FFB354"/>
</svg>
